<svg width="21" height="22" viewBox="0 0 21 22" fill="none" xmlns="http://www.w3.org/2000/svg">
<path d="M18.75 20.8833L12.2166 14.35C11.6333 14.8166 10.9625 15.1861 10.2041 15.4583C9.44578 15.7305 8.63884 15.8666 7.78328 15.8666C5.66384 15.8666 3.87028 15.1324 2.40262 13.664C0.934951 12.1955 0.200729 10.402 0.199951 8.28328C0.199951 6.16384 0.934173 4.37028 2.40262 2.90262C3.87106 1.43495 5.66462 0.700729 7.78328 0.699951C9.90273 0.699951 11.6963 1.43417 13.164 2.90262C14.6316 4.37106 15.3658 6.16462 15.3666 8.28328C15.3666 9.13884 15.2305 9.94578 14.9583 10.7041C14.6861 11.4625 14.3166 12.1333 13.85 12.7166L20.4125 19.2791C20.6263 19.493 20.7333 19.7555 20.7333 20.0666C20.7333 20.3777 20.6166 20.65 20.3833 20.8833C20.1694 21.0972 19.8972 21.2041 19.5666 21.2041C19.2361 21.2041 18.9638 21.0972 18.75 20.8833ZM7.78328 13.5333C9.24162 13.5333 10.4814 13.0227 11.5026 12.0015C12.5238 10.9802 13.0341 9.74084 13.0333 8.28328C13.0333 6.82495 12.5227 5.58517 11.5015 4.56395C10.4802 3.54273 9.24084 3.03251 7.78328 3.03328C6.32495 3.03328 5.08517 3.5439 4.06395 4.56512C3.04273 5.58634 2.53251 6.82573 2.53328 8.28328C2.53328 9.74162 3.0439 10.9814 4.06512 12.0026C5.08634 13.0238 6.32573 13.5341 7.78328 13.5333Z" fill="white"/>
</svg>
